name processed_emg_signals
nRows=75
nColumns=7
 
endheader
time	RGLTMED	RRF	RADDLONG	RST	RTA	RGM
1.1251999999999993	0.0311469409677297	0.079641136657293	0.7155473057843886	0.0716115740898432	0.1183119335050533	0.1246814260001295
1.1351999999999993	0.0309317306500705	0.0791453187102532	0.7141866497208266	0.0715442738407612	0.1181601808017907	0.1245107544448176
1.145199999999999	0.0307233403892876	0.0786511910919297	0.7127170480869672	0.0714725097000066	0.1179839895037683	0.1243326308359877
1.1551999999999991	0.0305219746197065	0.0781593106810409	0.7111412252079669	0.0713963473972325	0.1177840367681015	0.1241475054639662
1.1651999999999991	0.0303278248273815	0.0776702275299055	0.7094619276005335	0.0713158570086387	0.1175610233765465	0.1239558229906756
1.1751999999999991	0.030141069609931	0.0771844844589575	0.7076819245599585	0.071231113461082	0.1173156726251153	0.1237580228792318
1.1851999999999991	0.0299618747532441	0.076702616654593	0.705804008578547	0.0711421970170236	0.117048729155739	0.1235545398198026
1.1951999999999992	0.0297903933242782	0.0762251512699952	0.7038309955774966	0.071049193737471	0.1167609577333158	0.1233458041487931
1.2051999999999992	0.0296267657791547	0.0757526070285873	0.7017657249369509	0.070952195919862	0.116453141971367	0.1231322422582906
1.2151999999999992	0.0294711200857274	0.0752854938298153	0.699611059312358	0.0708513025076341	0.1161260830096254	0.1229142769926006
1.2251999999999992	0.0293235718597751	0.0748243123569846	0.6973698842291067	0.0707466194681351	0.1157805981472554	0.122692328028617
1.2351999999999992	0.0291842245139245	0.0743695536868872	0.6950451074515561	0.0706382601356069	0.1154175194359368	0.1224668122366699
1.2451999999999992	0.0290531694183557	0.0739216989009782	0.6926396581270782	0.07052634551608	0.1150376922374153	0.122238144018363
1.2551999999999992	0.0289304860722842	0.0734812186979592	0.6901564857104026	0.0704110045512191	0.1146419737502288	0.1220067356178428
1.2651999999999992	0.0288162422851505	0.073048573007792	0.6875985586778648	0.0702923743382936	0.1142312315101884	0.1217729974028792
1.2751999999999992	0.0287104943664099	0.0726242106073581	0.6849688630449826	0.0701706003036711	0.1138063418689618	0.1215373381121045
1.285199999999999	0.0286132873227916	0.0722085687381444	0.6822704007039873	0.0700458363274786	0.1133681884549109	0.1213001650647224
1.295199999999999	0.0285246550619306	0.0718020727263605	0.6795061876002576	0.0699182448174955	0.1129176606201458	0.1210618843291234
1.305199999999999	0.0284446206013587	0.07140513560592	0.6766792517675548	0.0697879967308909	0.1124556518777138	0.1208229008471204
1.315199999999999	0.0283731962819235	0.0710181577447927	0.6737926312417969	0.069655271543074	0.1119830583328498	0.1205836185109127
1.325199999999999	0.0283103839848202	0.0706415264753471	0.6708493718725023	0.0695202571635123	0.1115007771123522	0.1203444401902378
1.335199999999999	0.0282561753515059	0.0702756157295038	0.6678525250503025	0.0693831497989179	0.111009704796305	0.120105767707478
1.345199999999999	0.0282105520058755	0.0699207856796474	0.6648051453680262	0.0692441537647645	0.1105107358565892	0.1198680017587627
1.355199999999999	0.0281734857781613	0.0695773823864182	0.6617102882318365	0.0691034812467204	0.1100047611068496	0.1196315417794046
1.365199999999999	0.0281449389300847	0.0692457374546323	0.6585710074381113	0.068961352014099	0.1094926661687829	0.1193967857523567
1.375199999999999	0.0281248643808051	0.0689261676987316	0.6553903527313684	0.0688179930878452	0.1089753299597297	0.1191641299588606
1.385199999999999	0.028113205933298	0.0686189748192568	0.6521713673583649	0.0686736383657398	0.108453623206567	0.1189339686710926
1.395199999999999	0.0281098985008452	0.0683244450919445	0.6489170856331453	0.0685285282075602	0.1079284069908287	0.1187066937874654
1.4051999999999991	0.0281148683334399	0.0680428490710427	0.6456305305273778	0.068382908982889	0.1074005313298204	0.1184826944121465
1.4151999999999991	0.02812803324394	0.0677744413084034	0.642314711299857	0.0682370325842606	0.1068708337982602	0.1182623563811477
1.4251999999999991	0.0281493028338356	0.0675194600898278	0.6389726211784676	0.0680911559084241	0.1063401381947226	0.118046061737956
1.435199999999999	0.0281785787185144	0.0672781271900877	0.6356072351072107	0.067945540308592	0.1058092532568619	0.1178341881621922
1.445199999999999	0.0282157547519039	0.0670506476480111	0.6322215075700113	0.0678004510206055	0.105278971429074	0.1176271083552514
1.455199999999999	0.0282607172503578	0.0668372095629736	0.6288183705020617	0.0676561565659032	0.1047500676858585	0.1174251893872557
1.465199999999999	0.0283133452156435	0.0666379839140395	0.6254007312982062	0.0675129281340755	0.1042232984137947	0.1172287920098097
1.475199999999999	0.0283735105568484	0.066453124402857	0.621971470926275	0.0673710389477225	0.1036994003546655	0.1170382699390616
1.485199999999999	0.0284410783110068	0.0662827673212684	0.6185334421515373	0.0672307636122502	0.1031790896119344	0.1168539691134834
1.495199999999999	0.0285159068622506	0.0661270314444285	0.6150894678768645	0.0670923774532661	0.1026630607224649	0.1166762269306371
1.505199999999999	0.0285978481592828	0.0659860179500811	0.6116423396020311	0.0669561558442221	0.1021519857950687	0.1165053714669693
1.515199999999999	0.0286867479310353	0.0658598103645377	0.6081948160046542	0.0668223735269684	0.1016465137172177	0.1163417206844794
1.525199999999999	0.0287824459004405	0.0657484745357705	0.6047496216442958	0.0666913039278742	0.1011472694310568	0.1161855816278883
1.535199999999999	0.0288847759963553	0.0656520586340121	0.6013094457900525	0.0665632184721424	0.100654853279689	0.1160372496158451
1.545199999999999	0.028993566563749	0.065570593180212	0.5978769413708735	0.0664383858989594	0.1001698404245759	0.115897007429663
1.555199999999999	0.0291086405723373	0.0655040911027858	0.5944547240470655	0.0663170715801446	0.0996927803347887	0.1157651245031587
1.565199999999999	0.0292298158238949	0.0654525478231369	0.5910453714012006	0.0661995368450171	0.0992241963487009	0.1156418561172349
1.5751999999999988	0.0293569051585369	0.0654159413704616	0.5876514222469006	0.0660860383142233	0.0987645853085886	0.1155274426028042
1.5851999999999988	0.0294897166602779	0.0653942325262716	0.5842753760546274	0.065976827245247	0.0983144172683999	0.1154221085555447
1.5951999999999988	0.0296280538621665	0.0653873649989306	0.5809196924944424	0.0658721488922178	0.0978741352747607	0.1153260620658276
1.6051999999999988	0.0297717159512491	0.0653952656283069	0.5775867910962444	0.0657722418824775	0.0974441552210714	0.1152394939670551
1.6151999999999989	0.0299204979735422	0.0654178446204544	0.5742790510280141	0.0656773376121883	0.0970248657743279	0.1151625771055333
1.6251999999999989	0.0300741910391468	0.0654549958120258	0.5709988109921819	0.0655876596630911	0.0966166283740389	0.1150954656348728
1.6351999999999989	0.030232582527561	0.0655065969639275	0.5677483692395302	0.0655034232423999	0.0962197773023174	0.1150382943377811
1.6451999999999989	0.0303954562932321	0.0655725100835721	0.5645299836989959	0.0654248346476836	0.0958346198238948	0.1149911779779725
1.655199999999999	0.0305625928713874	0.0656525817748982	0.5613458722202819	0.0653520907584731	0.0954614363944983	0.1149542106848436
1.665199999999999	0.0307337696842134	0.0657466436151704	0.5581982129245188	0.0652853785561589	0.095100480935748	0.1149274653735105
1.675199999999999	0.0309087612474814	0.065854512557416	0.5550891446565746	0.0652248746735591	0.0947519811744712	0.1149109932027735
1.685199999999999	0.0310873393777449	0.0659759913572909	0.5520207675310199	0.0651707449753639	0.0944161390440758	0.1149048230735355
1.695199999999999	0.031269273400208	0.0661108690232067	0.5489951435621161	0.065123144170482	0.0940931311453701	0.1149089611701295
1.705199999999999	0.031454330357349	0.0662589212886437	0.54601429736644	0.0650822154571799	0.0937831092639282	0.1149233905468573
1.7151999999999987	0.0316422752183482	0.0664199111056769	0.5430802169250901	0.0650480902017564	0.0934862009408141	0.1149480707619311
1.7251999999999987	0.0318328710893497	0.0665935891587799	0.5401948543911763	0.0650208876513342	0.0932025100932473	0.114982937560841
1.7351999999999987	0.0320258794245776	0.0667796943979523	0.5373601269277035	0.0650007146812351	0.0929321176815671	0.1150279026111367
1.7451999999999988	0.0322210602383716	0.0669779545900871	0.5345779175611549	0.0649876655772644	0.0926750824186672	0.1150828532905376
1.7551999999999988	0.0324181723182907	0.0671880868873585	0.5318500760367889	0.0649818218532225	0.0924314415178812	0.1151476525302773
1.7651999999999988	0.0326169734395466	0.0674097984112253	0.5291784196624135	0.0649832521039849	0.0922012114750527	0.1152221387154775
1.7751999999999988	0.0328172205811061	0.0676427868504488	0.5265647341277263	0.0649920118945917	0.0919843888803261	0.1153061256442207
1.7851999999999988	0.0330186701438481	0.0678867410714134	0.5240107742862012	0.065008143685841	0.0917809512549224	0.1153994025467832
1.7951999999999988	0.0332210781711299	0.0681413417389214	0.5215182648864681	0.0650316767968689	0.0915908579079898	0.1155017341663164
1.8051999999999988	0.0334242005721004	0.068406261945633	0.5190889012408275	0.065062627405112	0.0914140508084163	0.1156128609020782
1.8151999999999988	0.0336277933480518	0.0686811678482678	0.5167243498200845	0.0651009985838802	0.0912504554664126	0.1157324990161366
1.8251999999999988	0.0338316128220966	0.0689657193086248	0.5144262487660147	0.0651467803775902	0.0910999818196729	0.1158603409042465
1.8351999999999988	0.0340354158724348	0.0692595705373575	0.5121962083151009	0.0651999499145376	0.0909625251190662	0.1159960554314296
1.8451999999999988	0.0342389601694364	0.0695623707382836	0.5100358111292549	0.0652604715569007	0.0908379668090867	0.1161392883326521
1.8551999999999986	0.0344420044167287	0.0698737647508922	0.5079466125307016	0.0653282970875422	0.0907261753985893	0.1162896626789343
1.8651999999999986	0.0346443085964337	0.0701933936886528	0.5059301406388724	0.0654033659330438	0.0906270073175808	0.1164467794091665
